<?xml version="1.0" encoding="UTF-8" standalone="no"?>
<!DOCTYPE svg PUBLIC "-//W3C//DTD SVG 1.1//EN"
 "http://www.w3.org/Graphics/SVG/1.1/DTD/svg11.dtd">
<!-- Generated by graphviz version 2.26.3 (20100126.1600)
 -->
<!-- Title: Finite_Automata_Graph Pages: 1 -->
<svg width="227pt" height="844pt"
 viewBox="0.00 0.00 227.00 844.00" xmlns="http://www.w3.org/2000/svg" xmlns:xlink="http://www.w3.org/1999/xlink">
<g id="graph1" class="graph" transform="scale(1 1) rotate(0) translate(4 840)">
<title>Finite_Automata_Graph</title>
<polygon fill="white" stroke="white" points="-4,5 -4,-840 224,-840 224,5 -4,5"/>
<!-- 0 -->
<g id="node1" class="node"><title>0</title>
<ellipse fill="none" stroke="#000000" cx="114" cy="-818" rx="18" ry="18"/>
<text text-anchor="middle" x="114" y="-813.4" font-family="Times Roman,serif" font-size="14.00">0</text>
</g>
<!-- 1 -->
<g id="node2" class="node"><title>1</title>
<ellipse fill="none" stroke="#000000" cx="114" cy="-730" rx="18" ry="18"/>
<text text-anchor="middle" x="114" y="-725.4" font-family="Times Roman,serif" font-size="14.00">1</text>
</g>
<!-- 0&#45;&gt;1 -->
<g id="edge2" class="edge"><title>0&#45;&gt;1</title>
<path fill="none" stroke="black" d="M107.808,-800.745C104.911,-790.659 102.411,-777.659 104,-766 104.394,-763.108 104.959,-760.12 105.622,-757.16"/>
<polygon fill="black" stroke="black" points="109.036,-757.936 108.15,-747.379 102.259,-756.185 109.036,-757.936"/>
<text text-anchor="middle" x="107" y="-769.4" font-family="Times Roman,serif" font-size="14.00">&#45;</text>
</g>
<!-- 0&#45;&gt;1 -->
<g id="edge4" class="edge"><title>0&#45;&gt;1</title>
<path fill="none" stroke="black" d="M114,-799.766C114,-787.849 114,-772.038 114,-758.482"/>
<polygon fill="black" stroke="black" points="117.5,-758.21 114,-748.21 110.5,-758.21 117.5,-758.21"/>
<text text-anchor="middle" x="118" y="-769.4" font-family="Times Roman,serif" font-size="14.00">ε</text>
</g>
<!-- 2 -->
<g id="node3" class="node"><title>2</title>
<ellipse fill="none" stroke="#000000" cx="117" cy="-554" rx="18" ry="18"/>
<text text-anchor="middle" x="117" y="-549.4" font-family="Times Roman,serif" font-size="14.00">2</text>
</g>
<!-- 1&#45;&gt;2 -->
<g id="edge6" class="edge"><title>1&#45;&gt;2</title>
<path fill="none" stroke="black" d="M111.309,-711.991C108.505,-690.898 104.804,-654.906 107,-624 107.993,-610.033 110.086,-594.615 112.102,-581.813"/>
<polygon fill="black" stroke="black" points="115.586,-582.198 113.751,-571.763 108.678,-581.064 115.586,-582.198"/>
<text text-anchor="middle" x="112" y="-637.4" font-family="Times Roman,serif" font-size="14.00">0</text>
</g>
<!-- 3 -->
<g id="node4" class="node"><title>3</title>
<ellipse fill="none" stroke="#000000" cx="144" cy="-642" rx="18" ry="18"/>
<text text-anchor="middle" x="144" y="-637.4" font-family="Times Roman,serif" font-size="14.00">3</text>
</g>
<!-- 1&#45;&gt;3 -->
<g id="edge8" class="edge"><title>1&#45;&gt;3</title>
<path fill="none" stroke="black" d="M119.927,-712.614C124.187,-700.119 130.01,-683.037 134.862,-668.804"/>
<polygon fill="black" stroke="black" points="138.273,-669.645 138.187,-659.05 131.648,-667.386 138.273,-669.645"/>
<text text-anchor="middle" x="136.5" y="-681.4" font-family="Times Roman,serif" font-size="14.00">D</text>
</g>
<!-- 4 -->
<g id="node5" class="node"><title>4</title>
<ellipse fill="none" stroke="#000000" cx="77" cy="-466" rx="18" ry="18"/>
<text text-anchor="middle" x="77" y="-461.4" font-family="Times Roman,serif" font-size="14.00">4</text>
</g>
<!-- 2&#45;&gt;4 -->
<g id="edge10" class="edge"><title>2&#45;&gt;4</title>
<path fill="none" stroke="black" d="M109.476,-537.448C103.61,-524.542 95.3592,-506.39 88.6421,-491.613"/>
<polygon fill="black" stroke="black" points="91.8143,-490.133 84.49,-482.478 85.4418,-493.03 91.8143,-490.133"/>
<text text-anchor="middle" x="103.5" y="-505.4" font-family="Times Roman,serif" font-size="14.00">.</text>
</g>
<!-- 5 -->
<g id="node6" class="node"><title>5</title>
<ellipse fill="none" stroke="#000000" cx="106" cy="-378" rx="18" ry="18"/>
<text text-anchor="middle" x="106" y="-373.4" font-family="Times Roman,serif" font-size="14.00">5</text>
</g>
<!-- 2&#45;&gt;5 -->
<g id="edge12" class="edge"><title>2&#45;&gt;5</title>
<path fill="none" stroke="black" d="M116.115,-535.868C114.778,-509.169 112.07,-457.714 109,-414 108.819,-411.427 108.619,-408.752 108.411,-406.073"/>
<polygon fill="black" stroke="black" points="111.886,-405.622 107.587,-395.938 104.909,-406.189 111.886,-405.622"/>
<text text-anchor="middle" x="118" y="-461.4" font-family="Times Roman,serif" font-size="14.00">ε</text>
</g>
<!-- 3&#45;&gt;2 -->
<g id="edge14" class="edge"><title>3&#45;&gt;2</title>
<path fill="none" stroke="black" d="M138.666,-624.614C134.857,-612.2 129.659,-595.258 125.309,-581.08"/>
<polygon fill="black" stroke="black" points="128.603,-579.883 122.323,-571.35 121.91,-581.937 128.603,-579.883"/>
<text text-anchor="middle" x="136" y="-593.4" font-family="Times Roman,serif" font-size="14.00">ε</text>
</g>
<!-- 3&#45;&gt;3 -->
<g id="edge16" class="edge"><title>3&#45;&gt;3</title>
<path fill="none" stroke="black" d="M161.782,-645.955C171.315,-646.627 180,-645.309 180,-642 180,-639.984 176.775,-638.707 172.098,-638.169"/>
<polygon fill="black" stroke="black" points="171.823,-634.665 161.782,-638.045 171.739,-641.665 171.823,-634.665"/>
<text text-anchor="middle" x="185" y="-637.4" font-family="Times Roman,serif" font-size="14.00">0</text>
</g>
<!-- 3&#45;&gt;3 -->
<g id="edge18" class="edge"><title>3&#45;&gt;3</title>
<path fill="none" stroke="black" d="M158.378,-653.302C176.465,-662.396 198,-658.629 198,-642 198,-628.229 183.231,-623.279 167.883,-627.148"/>
<polygon fill="black" stroke="black" points="166.522,-623.92 158.378,-630.698 168.971,-630.478 166.522,-623.92"/>
<text text-anchor="middle" x="203.5" y="-637.4" font-family="Times Roman,serif" font-size="14.00">D</text>
</g>
<!-- 4&#45;&gt;5 -->
<g id="edge22" class="edge"><title>4&#45;&gt;5</title>
<path fill="none" stroke="black" d="M72.4149,-448.114C70.6366,-437.819 69.8866,-424.819 74,-414 76.3793,-407.742 80.4002,-401.877 84.8033,-396.772"/>
<polygon fill="black" stroke="black" points="87.4546,-399.064 91.8559,-389.427 82.4053,-394.216 87.4546,-399.064"/>
<text text-anchor="middle" x="79.5" y="-417.4" font-family="Times Roman,serif" font-size="14.00">D</text>
</g>
<!-- 4&#45;&gt;5 -->
<g id="edge20" class="edge"><title>4&#45;&gt;5</title>
<path fill="none" stroke="black" d="M82.7295,-448.614C86.8206,-436.2 92.4038,-419.258 97.0758,-405.08"/>
<polygon fill="black" stroke="black" points="100.477,-405.943 100.282,-395.35 93.8283,-403.752 100.477,-405.943"/>
<text text-anchor="middle" x="100" y="-417.4" font-family="Times Roman,serif" font-size="14.00">0</text>
</g>
<!-- 5&#45;&gt;5 -->
<g id="edge24" class="edge"><title>5&#45;&gt;5</title>
<path fill="none" stroke="black" d="M123.782,-381.955C133.315,-382.627 142,-381.309 142,-378 142,-375.984 138.775,-374.707 134.098,-374.169"/>
<polygon fill="black" stroke="black" points="133.823,-370.665 123.782,-374.045 133.739,-377.665 133.823,-370.665"/>
<text text-anchor="middle" x="147" y="-373.4" font-family="Times Roman,serif" font-size="14.00">0</text>
</g>
<!-- 5&#45;&gt;5 -->
<g id="edge26" class="edge"><title>5&#45;&gt;5</title>
<path fill="none" stroke="black" d="M120.378,-389.302C138.465,-398.396 160,-394.629 160,-378 160,-364.229 145.231,-359.279 129.883,-363.148"/>
<polygon fill="black" stroke="black" points="128.522,-359.92 120.378,-366.698 130.971,-366.478 128.522,-359.92"/>
<text text-anchor="middle" x="165.5" y="-373.4" font-family="Times Roman,serif" font-size="14.00">D</text>
</g>
<!-- 6 -->
<g id="node7" class="node"><title>6</title>
<ellipse fill="none" stroke="#000000" cx="67" cy="-290" rx="18" ry="18"/>
<text text-anchor="middle" x="67" y="-285.4" font-family="Times Roman,serif" font-size="14.00">6</text>
</g>
<!-- 5&#45;&gt;6 -->
<g id="edge28" class="edge"><title>5&#45;&gt;6</title>
<path fill="none" stroke="black" d="M98.6644,-361.448C92.9992,-348.665 85.0532,-330.735 78.5386,-316.036"/>
<polygon fill="black" stroke="black" points="81.5543,-314.202 74.3027,-306.478 75.1547,-317.038 81.5543,-314.202"/>
<text text-anchor="middle" x="95" y="-329.4" font-family="Times Roman,serif" font-size="14.00">E</text>
</g>
<!-- 9 -->
<g id="node10" class="node"><title>9</title>
<ellipse fill="none" stroke="#000000" cx="89" cy="-22" rx="18" ry="18"/>
<ellipse fill="none" stroke="#000000" cx="89" cy="-22" rx="22" ry="22"/>
<text text-anchor="middle" x="89" y="-17.4" font-family="Times Roman,serif" font-size="14.00">9</text>
</g>
<!-- 5&#45;&gt;9 -->
<g id="edge30" class="edge"><title>5&#45;&gt;9</title>
<path fill="none" stroke="black" d="M110.746,-360.617C115.141,-342.973 121,-314.797 121,-290 121,-290 121,-290 121,-114 121,-91.8838 112.649,-68.354 104.479,-50.6268"/>
<polygon fill="black" stroke="black" points="107.526,-48.8906 100.013,-41.4212 101.229,-51.946 107.526,-48.8906"/>
<text text-anchor="middle" x="125" y="-197.4" font-family="Times Roman,serif" font-size="14.00">ε</text>
</g>
<!-- 7 -->
<g id="node8" class="node"><title>7</title>
<ellipse fill="none" stroke="#000000" cx="51" cy="-202" rx="18" ry="18"/>
<text text-anchor="middle" x="51" y="-197.4" font-family="Times Roman,serif" font-size="14.00">7</text>
</g>
<!-- 6&#45;&gt;7 -->
<g id="edge32" class="edge"><title>6&#45;&gt;7</title>
<path fill="none" stroke="black" d="M51.0904,-280.861C41.8964,-274.606 31.1569,-265.391 26,-254 21.3187,-243.66 25.6795,-232.286 31.995,-222.819"/>
<polygon fill="black" stroke="black" points="34.8689,-224.822 38.1412,-214.745 29.2991,-220.582 34.8689,-224.822"/>
<text text-anchor="middle" x="32" y="-241.4" font-family="Times Roman,serif" font-size="14.00">+</text>
</g>
<!-- 6&#45;&gt;7 -->
<g id="edge34" class="edge"><title>6&#45;&gt;7</title>
<path fill="none" stroke="black" d="M63.7622,-272.192C61.5501,-260.026 58.5743,-243.658 56.0526,-229.789"/>
<polygon fill="black" stroke="black" points="59.4655,-228.994 54.233,-219.782 52.5784,-230.246 59.4655,-228.994"/>
<text text-anchor="middle" x="64" y="-241.4" font-family="Times Roman,serif" font-size="14.00">&#45;</text>
</g>
<!-- 6&#45;&gt;7 -->
<g id="edge36" class="edge"><title>6&#45;&gt;7</title>
<path fill="none" stroke="black" d="M68.8268,-271.999C69.3982,-261.898 69.3614,-249.127 67,-238 66.2533,-234.481 65.138,-230.889 63.8372,-227.402"/>
<polygon fill="black" stroke="black" points="66.9714,-225.828 59.8317,-218 60.5315,-228.572 66.9714,-225.828"/>
<text text-anchor="middle" x="73" y="-241.4" font-family="Times Roman,serif" font-size="14.00">ε</text>
</g>
<!-- 8 -->
<g id="node9" class="node"><title>8</title>
<ellipse fill="none" stroke="#000000" cx="18" cy="-114" rx="18" ry="18"/>
<text text-anchor="middle" x="18" y="-109.4" font-family="Times Roman,serif" font-size="14.00">8</text>
</g>
<!-- 7&#45;&gt;8 -->
<g id="edge38" class="edge"><title>7&#45;&gt;8</title>
<path fill="none" stroke="black" d="M36.9311,-190.544C30.1589,-184.122 22.7171,-175.501 19,-166 16.072,-158.516 15.059,-149.951 14.9834,-141.961"/>
<polygon fill="black" stroke="black" points="18.4825,-142.046 15.3417,-131.928 11.4869,-141.796 18.4825,-142.046"/>
<text text-anchor="middle" x="24" y="-153.4" font-family="Times Roman,serif" font-size="14.00">0</text>
</g>
<!-- 7&#45;&gt;8 -->
<g id="edge40" class="edge"><title>7&#45;&gt;8</title>
<path fill="none" stroke="black" d="M44.6373,-185.033C39.8894,-172.372 33.3131,-154.835 27.8829,-140.354"/>
<polygon fill="black" stroke="black" points="31.1317,-139.05 24.3432,-130.915 24.5773,-141.507 31.1317,-139.05"/>
<text text-anchor="middle" x="43.5" y="-153.4" font-family="Times Roman,serif" font-size="14.00">D</text>
</g>
<!-- 8&#45;&gt;8 -->
<g id="edge42" class="edge"><title>8&#45;&gt;8</title>
<path fill="none" stroke="black" d="M35.7817,-117.955C45.3149,-118.627 54,-117.309 54,-114 54,-111.984 50.7749,-110.707 46.0981,-110.169"/>
<polygon fill="black" stroke="black" points="45.823,-106.665 35.7817,-110.045 45.7391,-113.665 45.823,-106.665"/>
<text text-anchor="middle" x="59" y="-109.4" font-family="Times Roman,serif" font-size="14.00">0</text>
</g>
<!-- 8&#45;&gt;8 -->
<g id="edge44" class="edge"><title>8&#45;&gt;8</title>
<path fill="none" stroke="black" d="M32.3782,-125.302C50.4646,-134.396 72,-130.629 72,-114 72,-100.229 57.2312,-95.2786 41.8828,-99.1483"/>
<polygon fill="black" stroke="black" points="40.5219,-95.9203 32.3782,-102.698 42.9708,-102.478 40.5219,-95.9203"/>
<text text-anchor="middle" x="77.5" y="-109.4" font-family="Times Roman,serif" font-size="14.00">D</text>
</g>
<!-- 8&#45;&gt;9 -->
<g id="edge46" class="edge"><title>8&#45;&gt;9</title>
<path fill="none" stroke="black" d="M29.0938,-99.625C39.7216,-85.8536 56.006,-64.7528 68.9153,-48.0253"/>
<polygon fill="black" stroke="black" points="71.9717,-49.7935 75.3105,-39.7385 66.43,-45.5168 71.9717,-49.7935"/>
<text text-anchor="middle" x="62" y="-65.4" font-family="Times Roman,serif" font-size="14.00">ε</text>
</g>
</g>
</svg>
